<svg width="32" height="32" viewBox="0 0 32 32" fill="none" xmlns="http://www.w3.org/2000/svg">
<path fill-rule="evenodd" clip-rule="evenodd" d="M13.3327 25.3333C13.0313 25.3333 12.7287 25.232 12.4793 25.024C11.914 24.5533 11.838 23.712 12.3087 23.1467L18.2767 15.9853L12.5233 8.83601C12.062 8.26267 12.1527 7.42267 12.726 6.96134C13.3007 6.50001 14.1393 6.59067 14.602 7.16401L21.0393 15.164C21.4367 15.6587 21.4313 16.3653 21.0247 16.8533L14.358 24.8533C14.094 25.1693 13.7153 25.3333 13.3327 25.3333Z" fill="#181B32"/>
<mask id="mask0" mask-type="alpha" maskUnits="userSpaceOnUse" x="12" y="6" width="10" height="20">
<path fill-rule="evenodd" clip-rule="evenodd" d="M13.3327 25.3333C13.0313 25.3333 12.7287 25.232 12.4793 25.024C11.914 24.5533 11.838 23.712 12.3087 23.1467L18.2767 15.9853L12.5233 8.83601C12.062 8.26267 12.1527 7.42267 12.726 6.96134C13.3007 6.50001 14.1393 6.59067 14.602 7.16401L21.0393 15.164C21.4367 15.6587 21.4313 16.3653 21.0247 16.8533L14.358 24.8533C14.094 25.1693 13.7153 25.3333 13.3327 25.3333Z" fill="white"/>
</mask>
<g mask="url(#mask0)">
<rect width="32" height="32" fill="#181B32"/>
</g>
</svg>
