<svg width="24" height="25" viewBox="0 0 24 25" fill="none" xmlns="http://www.w3.org/2000/svg">
<path fill-rule="evenodd" clip-rule="evenodd" d="M11.9999 16.7463C11.7719 16.7463 11.5449 16.6693 11.3599 16.5143L5.35991 11.5143C4.93591 11.1613 4.87791 10.5303 5.23191 10.1063C5.58491 9.68232 6.21491 9.62532 6.63991 9.97832L12.0109 14.4543L17.3729 10.1393C17.8029 9.79332 18.4329 9.86132 18.7789 10.2913C19.1249 10.7213 19.0569 11.3503 18.6269 11.6973L12.6269 16.5253C12.4439 16.6723 12.2219 16.7463 11.9999 16.7463Z" fill="#231F20"/>
<mask id="mask0" mask-type="alpha" maskUnits="userSpaceOnUse" x="5" y="9" width="14" height="8">
<path fill-rule="evenodd" clip-rule="evenodd" d="M11.9999 16.7463C11.7719 16.7463 11.5449 16.6693 11.3599 16.5143L5.35991 11.5143C4.93591 11.1613 4.87791 10.5303 5.23191 10.1063C5.58491 9.68232 6.21491 9.62532 6.63991 9.97832L12.0109 14.4543L17.3729 10.1393C17.8029 9.79332 18.4329 9.86132 18.7789 10.2913C19.1249 10.7213 19.0569 11.3503 18.6269 11.6973L12.6269 16.5253C12.4439 16.6723 12.2219 16.7463 11.9999 16.7463Z" fill="white"/>
</mask>
<g mask="url(#mask0)">
<rect y="0.746338" width="24" height="24" fill="#181B32"/>
</g>
</svg>
