<svg width="32" height="32" viewBox="0 0 32 32" fill="none" xmlns="http://www.w3.org/2000/svg">
<path fill-rule="evenodd" clip-rule="evenodd" d="M18.6673 6.66666C18.9687 6.66666 19.2713 6.76799 19.5207 6.97599C20.086 7.44666 20.162 8.28799 19.6913 8.85333L13.7233 16.0147L19.4767 23.164C19.938 23.7373 19.8473 24.5773 19.274 25.0387C18.6993 25.5 17.8607 25.4093 17.398 24.836L10.9607 16.836C10.5633 16.3413 10.5687 15.6347 10.9753 15.1467L17.642 7.14666C17.906 6.83066 18.2847 6.66666 18.6673 6.66666Z" fill="#181B32"/>
<mask id="mask0" mask-type="alpha" maskUnits="userSpaceOnUse" x="10" y="6" width="10" height="20">
<path fill-rule="evenodd" clip-rule="evenodd" d="M18.6673 6.66666C18.9687 6.66666 19.2713 6.76799 19.5207 6.97599C20.086 7.44666 20.162 8.28799 19.6913 8.85333L13.7233 16.0147L19.4767 23.164C19.938 23.7373 19.8473 24.5773 19.274 25.0387C18.6993 25.5 17.8607 25.4093 17.398 24.836L10.9607 16.836C10.5633 16.3413 10.5687 15.6347 10.9753 15.1467L17.642 7.14666C17.906 6.83066 18.2847 6.66666 18.6673 6.66666Z" fill="white"/>
</mask>
<g mask="url(#mask0)">
<rect x="32" y="32" width="32" height="32" transform="rotate(-180 32 32)" fill="#C3CBD6"/>
</g>
</svg>
