<svg width="24" height="24" viewBox="0 0 24 24" fill="none" xmlns="http://www.w3.org/2000/svg">
<path fill-rule="evenodd" clip-rule="evenodd" d="M5 11L16.865 11L13.232 6.64C12.878 6.216 12.936 5.585 13.36 5.232C13.785 4.878 14.415 4.936 14.769 5.36L19.769 11.36C19.808 11.407 19.827 11.462 19.856 11.514C19.88 11.556 19.909 11.592 19.927 11.638C19.972 11.753 19.999 11.874 19.999 11.996C19.999 11.997 20 11.999 20 12C20 12.001 19.999 12.003 19.999 12.004C19.999 12.126 19.972 12.247 19.927 12.362C19.909 12.408 19.88 12.444 19.856 12.486C19.827 12.538 19.808 12.593 19.769 12.64L14.769 18.64C14.57 18.877 14.286 19 14 19C13.774 19 13.547 18.924 13.36 18.768C12.936 18.415 12.878 17.784 13.232 17.36L16.865 13L5 13C4.448 13 4 12.552 4 12C4 11.448 4.448 11 5 11Z" fill="#181B32"/>
<mask id="mask0" mask-type="alpha" maskUnits="userSpaceOnUse" x="4" y="5" width="16" height="14">
<path fill-rule="evenodd" clip-rule="evenodd" d="M5 11L16.865 11L13.232 6.64C12.878 6.216 12.936 5.585 13.36 5.232C13.785 4.878 14.415 4.936 14.769 5.36L19.769 11.36C19.808 11.407 19.827 11.462 19.856 11.514C19.88 11.556 19.909 11.592 19.927 11.638C19.972 11.753 19.999 11.874 19.999 11.996C19.999 11.997 20 11.999 20 12C20 12.001 19.999 12.003 19.999 12.004C19.999 12.126 19.972 12.247 19.927 12.362C19.909 12.408 19.88 12.444 19.856 12.486C19.827 12.538 19.808 12.593 19.769 12.64L14.769 18.64C14.57 18.877 14.286 19 14 19C13.774 19 13.547 18.924 13.36 18.768C12.936 18.415 12.878 17.784 13.232 17.36L16.865 13L5 13C4.448 13 4 12.552 4 12C4 11.448 4.448 11 5 11Z" fill="white"/>
</mask>
<g mask="url(#mask0)">
<rect width="24" height="24" transform="matrix(1 0 0 -1 0 24)" fill="#181B32"/>
</g>
</svg>
