<svg width="17" height="16" viewBox="0 0 17 16" fill="none" xmlns="http://www.w3.org/2000/svg">
<path fill-rule="evenodd" clip-rule="evenodd" d="M13.1667 2.66669C12.8 2.66669 12.5 2.96669 12.5 3.33335V13.3334C12.5 13.7 12.8 14 13.1667 14C13.5334 14 13.8334 13.7 13.8334 13.3334V3.33335C13.8334 2.96669 13.5334 2.66669 13.1667 2.66669ZM8.50002 5.33335C8.13335 5.33335 7.83335 5.63335 7.83335 6.00002V13.3334C7.83335 13.7 8.13335 14 8.50002 14C8.86669 14 9.16669 13.7 9.16669 13.3334V6.00002C9.16669 5.63335 8.86669 5.33335 8.50002 5.33335ZM3.16669 8.66669C3.16669 8.30002 3.46669 8.00002 3.83335 8.00002C4.20002 8.00002 4.50002 8.30002 4.50002 8.66669V13.3334C4.50002 13.7 4.20002 14 3.83335 14C3.46669 14 3.16669 13.7 3.16669 13.3334V8.66669Z" fill="#8D8D9D"/>
<mask id="mask0" mask-type="alpha" maskUnits="userSpaceOnUse" x="3" y="2" width="11" height="12">
<path fill-rule="evenodd" clip-rule="evenodd" d="M13.1667 2.66669C12.8 2.66669 12.5 2.96669 12.5 3.33335V13.3334C12.5 13.7 12.8 14 13.1667 14C13.5334 14 13.8334 13.7 13.8334 13.3334V3.33335C13.8334 2.96669 13.5334 2.66669 13.1667 2.66669ZM8.50002 5.33335C8.13335 5.33335 7.83335 5.63335 7.83335 6.00002V13.3334C7.83335 13.7 8.13335 14 8.50002 14C8.86669 14 9.16669 13.7 9.16669 13.3334V6.00002C9.16669 5.63335 8.86669 5.33335 8.50002 5.33335ZM3.16669 8.66669C3.16669 8.30002 3.46669 8.00002 3.83335 8.00002C4.20002 8.00002 4.50002 8.30002 4.50002 8.66669V13.3334C4.50002 13.7 4.20002 14 3.83335 14C3.46669 14 3.16669 13.7 3.16669 13.3334V8.66669Z" fill="white"/>
</mask>
<g mask="url(#mask0)">
<rect x="0.5" width="16" height="16" fill="#8D8D9D"/>
</g>
</svg>
