<svg width="25" height="24" viewBox="0 0 25 24" fill="none" xmlns="http://www.w3.org/2000/svg">
<path fill-rule="evenodd" clip-rule="evenodd" d="M17.3885 18.3184C17.2165 17.8854 16.9725 17.5074 16.7585 17.1844C16.6505 17.0224 16.5395 16.8574 16.4425 16.6874C16.0535 16.0114 16.1875 15.7374 16.8185 14.6804L16.9205 14.5074C17.4315 13.6464 17.4595 12.8204 17.4855 12.0924C17.4975 11.7344 17.5095 11.3974 17.5785 11.0804C17.7395 10.3484 19.2865 10.1534 20.2455 10.0384C20.4065 10.6674 20.4995 11.3224 20.4995 12.0004C20.4995 14.5694 19.2775 16.8534 17.3885 18.3184ZM12.4995 4.0004C13.1155 4.0004 13.7105 4.0764 14.2865 4.2084C14.1175 4.5804 13.8565 4.9194 13.5125 5.1884C13.2945 5.3604 13.0495 5.5034 12.8065 5.6484C12.1555 6.0364 11.4185 6.4764 10.9565 7.3224C10.3405 8.4524 10.3405 9.6064 10.3405 10.6244C10.3405 11.9794 10.2965 12.7804 9.39251 13.4874C8.02351 14.5604 5.92851 13.9614 4.63251 13.4164C4.55051 12.9554 4.49951 12.4834 4.49951 12.0004C4.49951 7.5894 8.08851 4.0004 12.4995 4.0004ZM12.4995 2.0004C6.98551 2.0004 2.49951 6.4864 2.49951 12.0004C2.49951 17.5134 6.98551 22.0004 12.4995 22.0004C18.0135 22.0004 22.4995 17.5134 22.4995 12.0004C22.4995 6.4864 18.0135 2.0004 12.4995 2.0004Z" fill="white"/>
<mask id="mask0" mask-type="alpha" maskUnits="userSpaceOnUse" x="2" y="2" width="21" height="21">
<path fill-rule="evenodd" clip-rule="evenodd" d="M17.3885 18.3184C17.2165 17.8854 16.9725 17.5074 16.7585 17.1844C16.6505 17.0224 16.5395 16.8574 16.4425 16.6874C16.0535 16.0114 16.1875 15.7374 16.8185 14.6804L16.9205 14.5074C17.4315 13.6464 17.4595 12.8204 17.4855 12.0924C17.4975 11.7344 17.5095 11.3974 17.5785 11.0804C17.7395 10.3484 19.2865 10.1534 20.2455 10.0384C20.4065 10.6674 20.4995 11.3224 20.4995 12.0004C20.4995 14.5694 19.2775 16.8534 17.3885 18.3184ZM12.4995 4.0004C13.1155 4.0004 13.7105 4.0764 14.2865 4.2084C14.1175 4.5804 13.8565 4.9194 13.5125 5.1884C13.2945 5.3604 13.0495 5.5034 12.8065 5.6484C12.1555 6.0364 11.4185 6.4764 10.9565 7.3224C10.3405 8.4524 10.3405 9.6064 10.3405 10.6244C10.3405 11.9794 10.2965 12.7804 9.39251 13.4874C8.02351 14.5604 5.92851 13.9614 4.63251 13.4164C4.55051 12.9554 4.49951 12.4834 4.49951 12.0004C4.49951 7.5894 8.08851 4.0004 12.4995 4.0004ZM12.4995 2.0004C6.98551 2.0004 2.49951 6.4864 2.49951 12.0004C2.49951 17.5134 6.98551 22.0004 12.4995 22.0004C18.0135 22.0004 22.4995 17.5134 22.4995 12.0004C22.4995 6.4864 18.0135 2.0004 12.4995 2.0004Z" fill="white"/>
</mask>
<g mask="url(#mask0)">
<rect x="0.5" width="24" height="24" fill="white"/>
</g>
</svg>
