<svg width="17" height="16" viewBox="0 0 17 16" fill="none" xmlns="http://www.w3.org/2000/svg">
<path fill-rule="evenodd" clip-rule="evenodd" d="M6.50004 7.33333C7.97071 7.33333 9.16671 6.13733 9.16671 4.66667C9.16671 3.196 7.97071 2 6.50004 2C5.02937 2 3.83337 3.196 3.83337 4.66667C3.83337 6.13733 5.02937 7.33333 6.50004 7.33333ZM11.8334 8.66667C12.936 8.66667 13.8334 7.76933 13.8334 6.66667C13.8334 5.564 12.936 4.66667 11.8334 4.66667C10.7307 4.66667 9.83337 5.564 9.83337 6.66667C9.83337 7.76933 10.7307 8.66667 11.8334 8.66667ZM15.1667 12.6667C15.1667 13.0347 14.8687 13.3333 14.5 13.3333H11.1667C11.1667 13.7013 10.8687 14 10.5 14H2.50004C2.13137 14 1.83337 13.7013 1.83337 13.3333C1.83337 10.76 3.92737 8.66667 6.50004 8.66667C7.78471 8.66667 8.94871 9.18867 9.79337 10.0307C10.3727 9.58267 11.086 9.33333 11.8334 9.33333C13.6714 9.33333 15.1667 10.8287 15.1667 12.6667Z" fill="#8D8D9D"/>
<mask id="mask0" mask-type="alpha" maskUnits="userSpaceOnUse" x="1" y="2" width="15" height="12">
<path fill-rule="evenodd" clip-rule="evenodd" d="M6.50004 7.33333C7.97071 7.33333 9.16671 6.13733 9.16671 4.66667C9.16671 3.196 7.97071 2 6.50004 2C5.02937 2 3.83337 3.196 3.83337 4.66667C3.83337 6.13733 5.02937 7.33333 6.50004 7.33333ZM11.8334 8.66667C12.936 8.66667 13.8334 7.76933 13.8334 6.66667C13.8334 5.564 12.936 4.66667 11.8334 4.66667C10.7307 4.66667 9.83337 5.564 9.83337 6.66667C9.83337 7.76933 10.7307 8.66667 11.8334 8.66667ZM15.1667 12.6667C15.1667 13.0347 14.8687 13.3333 14.5 13.3333H11.1667C11.1667 13.7013 10.8687 14 10.5 14H2.50004C2.13137 14 1.83337 13.7013 1.83337 13.3333C1.83337 10.76 3.92737 8.66667 6.50004 8.66667C7.78471 8.66667 8.94871 9.18867 9.79337 10.0307C10.3727 9.58267 11.086 9.33333 11.8334 9.33333C13.6714 9.33333 15.1667 10.8287 15.1667 12.6667Z" fill="white"/>
</mask>
<g mask="url(#mask0)">
<rect x="0.5" width="16" height="16" fill="#8D8D9D"/>
</g>
</svg>
