<svg width="16" height="17" viewBox="0 0 16 17" fill="none" xmlns="http://www.w3.org/2000/svg">
<path fill-rule="evenodd" clip-rule="evenodd" d="M7.8179 10.702C7.91426 10.702 8.01063 10.7273 8.09851 10.7773L10.3827 12.0907L9.9482 9.31933C9.91366 9.10199 9.97972 8.88066 10.124 8.72666L11.964 6.76933L9.41669 6.36133C9.21972 6.32999 9.04941 6.19466 8.96093 5.99866L7.8179 3.46933L6.67487 5.99866C6.58638 6.19466 6.41608 6.32999 6.21911 6.36133L3.67184 6.76933L5.51184 8.72666C5.65608 8.88066 5.72214 9.10199 5.6876 9.31933L5.25305 12.0907L7.53729 10.7773C7.62517 10.7273 7.72154 10.702 7.8179 10.702ZM11.1888 13.972C11.0924 13.972 10.9961 13.9473 10.9082 13.8967L7.8179 12.1207L4.7276 13.8967C4.52275 14.014 4.27548 13.9933 4.09063 13.844C3.90396 13.6947 3.81123 13.442 3.85002 13.192L4.43911 9.43999L1.94214 6.78333C1.77548 6.60666 1.71608 6.34133 1.78699 6.09933C1.85729 5.85733 2.0476 5.68133 2.27608 5.64466L5.73123 5.09266L7.27487 1.67533C7.47972 1.22199 8.15608 1.22199 8.36093 1.67533L9.90457 5.09266L13.3597 5.64466C13.5882 5.68133 13.7785 5.85733 13.8488 6.09933C13.9197 6.34133 13.8603 6.60666 13.6937 6.78333L11.1967 9.43999L11.7858 13.192C11.8246 13.442 11.7318 13.6947 11.5452 13.844C11.4403 13.9293 11.3149 13.972 11.1888 13.972Z" fill="#181B32"/>
<mask id="mask0" mask-type="alpha" maskUnits="userSpaceOnUse" x="1" y="1" width="13" height="13">
<path fill-rule="evenodd" clip-rule="evenodd" d="M11.1888 13.972C11.0924 13.972 10.9961 13.9473 10.9082 13.8967L7.8179 12.1207L4.7276 13.8967C4.52275 14.014 4.27548 13.9933 4.09063 13.844C3.90396 13.6947 3.81123 13.442 3.85002 13.192L4.43911 9.43999L1.94214 6.78333C1.77548 6.60666 1.71608 6.34133 1.78699 6.09933C1.85729 5.85733 2.0476 5.68133 2.27608 5.64466L5.73123 5.09266L7.27487 1.67533C7.47972 1.22199 8.15608 1.22199 8.36093 1.67533L9.90457 5.09266L13.3597 5.64466C13.5882 5.68133 13.7785 5.85733 13.8488 6.09933C13.9197 6.34133 13.8603 6.60666 13.6937 6.78333L11.1967 9.43999L11.7858 13.192C11.8246 13.442 11.7318 13.6947 11.5452 13.844C11.4403 13.9293 11.3149 13.972 11.1888 13.972Z" fill="white"/>
</mask>
<g mask="url(#mask0)">
<rect x="0.54541" y="0.00195312" width="14.5455" height="16" fill="#8D8D9D"/>
</g>
</svg>
