<svg width="17" height="17" viewBox="0 0 17 17" fill="none" xmlns="http://www.w3.org/2000/svg">
<path fill-rule="evenodd" clip-rule="evenodd" d="M8.09044 10.702C8.19644 10.702 8.30244 10.7273 8.3991 10.7773L10.9118 12.0907L10.4338 9.31933C10.3958 9.10199 10.4684 8.88066 10.6271 8.72666L12.6511 6.76933L9.8491 6.36133C9.63244 6.32999 9.4451 6.19466 9.34777 5.99866L8.09044 3.46933L6.8331 5.99866C6.73577 6.19466 6.54844 6.32999 6.33177 6.36133L3.52977 6.76933L5.55377 8.72666C5.71244 8.88066 5.7851 9.10199 5.7471 9.31933L5.2691 12.0907L7.78177 10.7773C7.87844 10.7273 7.98444 10.702 8.09044 10.702ZM11.7984 13.972C11.6924 13.972 11.5864 13.9473 11.4898 13.8967L8.09044 12.1207L4.6911 13.8967C4.46577 14.014 4.19377 13.9933 3.99044 13.844C3.7851 13.6947 3.6831 13.442 3.72577 13.192L4.37377 9.43999L1.6271 6.78333C1.44377 6.60666 1.37844 6.34133 1.45644 6.09933C1.53377 5.85733 1.7431 5.68133 1.99444 5.64466L5.7951 5.09266L7.4931 1.67533C7.71844 1.22199 8.46244 1.22199 8.68777 1.67533L10.3858 5.09266L14.1864 5.64466C14.4378 5.68133 14.6471 5.85733 14.7244 6.09933C14.8024 6.34133 14.7371 6.60666 14.5538 6.78333L11.8071 9.43999L12.4551 13.192C12.4978 13.442 12.3958 13.6947 12.1904 13.844C12.0751 13.9293 11.9371 13.972 11.7984 13.972Z" fill="#181B32"/>
<mask id="mask0" mask-type="alpha" maskUnits="userSpaceOnUse" x="1" y="1" width="14" height="13">
<path fill-rule="evenodd" clip-rule="evenodd" d="M11.7984 13.972C11.6924 13.972 11.5864 13.9473 11.4898 13.8967L8.09044 12.1207L4.6911 13.8967C4.46577 14.014 4.19377 13.9933 3.99044 13.844C3.7851 13.6947 3.6831 13.442 3.72577 13.192L4.37377 9.43999L1.6271 6.78333C1.44377 6.60666 1.37844 6.34133 1.45644 6.09933C1.53377 5.85733 1.7431 5.68133 1.99444 5.64466L5.7951 5.09266L7.4931 1.67533C7.71844 1.22199 8.46244 1.22199 8.68777 1.67533L10.3858 5.09266L14.1864 5.64466C14.4378 5.68133 14.6471 5.85733 14.7244 6.09933C14.8024 6.34133 14.7371 6.60666 14.5538 6.78333L11.8071 9.43999L12.4551 13.192C12.4978 13.442 12.3958 13.6947 12.1904 13.844C12.0751 13.9293 11.9371 13.972 11.7984 13.972Z" fill="white"/>
</mask>
<g mask="url(#mask0)">
<rect x="0.0908203" y="0.00195312" width="16" height="16" fill="#C3CBD6"/>
</g>
</svg>
